<!DOCTYPE svg PUBLIC "-//W3C//DTD SVG 1.1//EN" "http://www.w3.org/Graphics/SVG/1.1/DTD/svg11.dtd">
<!-- Uploaded to: SVG Repo, www.svgrepo.com, Transformed by: SVG Repo Mixer Tools -->
<svg fill="#ff0000" height="800px" width="800px" version="1.1" id="Layer_1" xmlns="http://www.w3.org/2000/svg" xmlns:xlink="http://www.w3.org/1999/xlink" viewBox="0 0 512 512" xml:space="preserve" stroke="#ff0000">
<g id="SVGRepo_bgCarrier" stroke-width="0"/>
<g id="SVGRepo_tracerCarrier" stroke-linecap="round" stroke-linejoin="round"/>
<g id="SVGRepo_iconCarrier"> <g> <g> <path d="M256,0C114.844,0,0,114.839,0,256s114.844,256,256,256s256-114.839,256-256S397.156,0,256,0z M389.594,317.231H244.592 l-40.125,90.281c-2.772,6.219-8.872,9.92-15.275,9.92c-2.261,0-4.567-0.468-6.773-1.446c-8.425-3.745-12.221-13.612-8.48-22.043 l34.094-76.712h-85.627c-9.219,0-16.699-7.475-16.699-16.699c0-9.225,7.48-16.699,16.699-16.699h100.471l29.688-66.797H122.406v0 c-9.219,0-16.699-7.475-16.699-16.699c0-9.225,7.48-16.699,16.699-16.699h145.002l40.125-90.281 c3.751-8.42,13.579-12.236,22.049-8.474c8.425,3.745,12.221,13.612,8.48,22.043l-34.094,76.712h85.627 c9.219,0,16.699,7.475,16.699,16.699s-7.48,16.699-16.699,16.699H289.124l-29.688,66.797h130.159 c9.219,0,16.699,7.475,16.699,16.699C406.294,309.756,398.813,317.231,389.594,317.231z"/> </g> </g> </g>
</svg>