<?xml version="1.0" encoding="iso-8859-1"?>
<!-- Uploaded to: SVG Repo, www.svgrepo.com, Generator: SVG Repo Mixer Tools -->
<svg height="800px" width="800px" version="1.1" id="Layer_1" xmlns="http://www.w3.org/2000/svg" xmlns:xlink="http://www.w3.org/1999/xlink" 
	 viewBox="0 0 512 512" xml:space="preserve">
<path style="fill:#FFAF00;" d="M255.994,121.247h-99.523c-11.986,0-28.727,6.936-37.203,15.41L15.337,240.588
	c-8.476,8.475-5.603,15.411,6.382,15.411h234.275V121.247z"/>
<path style="fill:#FFD41D;" d="M119.268,136.658l-103.93,103.93c-8.476,8.475-5.603,15.411,6.382,15.411h234.275l-126.701-126.7
	C125.406,131.488,121.93,133.997,119.268,136.658z"/>
<path style="fill:#D50707;" d="M390.747,255.999v-99.523c0-11.986-6.936-28.727-15.411-37.202L271.405,15.343
	c-8.476-8.475-15.411-5.603-15.411,6.383v234.274H390.747z"/>
<path style="fill:#FF1A1A;" d="M375.336,119.274L271.405,15.343c-8.476-8.475-15.411-5.603-15.411,6.383v234.274l126.701-126.701
	C380.506,125.411,377.998,121.935,375.336,119.274z"/>
<path style="fill:#0084FF;" d="M256.005,390.752h99.523c11.986,0,28.727-6.936,37.203-15.41l103.93-103.931
	c8.476-8.475,5.603-15.411-6.382-15.411H256.005V390.752z"/>
<path style="fill:#10BAFC;" d="M392.731,375.342l103.93-103.931c8.476-8.475,5.603-15.411-6.382-15.411H256.005l126.702,126.701
	C386.593,380.511,390.069,378.003,392.731,375.342z"/>
<path style="fill:#1EB615;" d="M121.252,255.999v99.523c0,11.986,6.936,28.727,15.411,37.203l103.93,103.93
	c8.476,8.475,15.411,5.603,15.411-6.383V255.999H121.252z"/>
<path style="fill:#92E03F;" d="M136.663,392.726l103.93,103.93c8.476,8.475,15.411,5.603,15.411-6.383V255.999L129.303,382.701
	C131.493,386.587,134.001,390.065,136.663,392.726z"/>
<path d="M510.797,256.528c-1.698-4.1-6.621-10.977-20.517-10.977h-89.085v-89.075c0-15.527-7.403-33.523-18.471-44.59L278.793,7.955
	c-5.263-5.263-10.73-7.93-16.248-7.93c-8.461,0-16.998,6.71-16.998,21.702V110.8h-89.075c-15.528,0-33.523,7.404-44.592,18.47
	L7.95,233.2c-9.827,9.826-8.445,18.171-6.747,22.27c1.698,4.1,6.621,10.977,20.517,10.977h89.085v89.075
	c0,15.528,7.403,33.523,18.471,44.592l103.93,103.93c5.263,5.262,10.728,7.93,16.247,7.93c0.001,0,0.001,0,0.002,0
	c5.672,0,10.669-2.891,13.707-7.932c2.184-3.623,3.291-8.256,3.291-13.77V401.2h89.075c15.527,0,33.523-7.404,44.592-18.47
	L504.05,278.798C513.876,268.974,512.495,260.628,510.797,256.528C509.098,252.429,512.495,260.628,510.797,256.528
	C509.098,252.429,512.495,260.628,510.797,256.528C509.098,252.429,512.495,260.628,510.797,256.528
	C509.098,252.429,512.495,260.628,510.797,256.528z M380.299,156.476v89.075h-99.079l97.771-97.771
	C379.814,150.89,380.299,153.888,380.299,156.476z M266.442,25.156l101.505,101.506c0.42,0.42,0.837,0.876,1.251,1.357
	L266.442,230.775V25.156z M245.546,131.695v99.08l-97.772-97.772c3.11-0.823,6.109-1.308,8.697-1.308
	C156.471,131.695,245.546,131.695,245.546,131.695z M126.656,144.046c0.42-0.42,0.876-0.837,1.357-1.251L230.77,245.551H25.15
	L126.656,144.046z M230.779,266.448l-97.771,97.771c-0.823-3.11-1.308-6.109-1.308-8.696v-89.075H230.779z M245.556,486.843
	L144.052,385.338c-0.42-0.42-0.837-0.876-1.251-1.358l102.756-102.756v205.62H245.556z M266.453,380.304v-99.08l97.772,97.772
	c-3.11,0.823-6.109,1.308-8.697,1.308H266.453z M385.344,367.954c-0.42,0.42-0.876,0.837-1.357,1.251L315.7,300.919h76.681
	c5.771,0,10.448-4.678,10.448-10.448c0-5.771-4.678-10.448-10.448-10.448h-97.578l-13.574-13.574h205.619L385.344,367.954z"/>
<path d="M426.183,300.918h4.678c5.771,0,10.448-4.678,10.448-10.448s-4.678-10.448-10.448-10.448h-4.678
	c-5.771,0-10.448,4.678-10.448,10.448C415.735,296.241,420.412,300.918,426.183,300.918z"/>
</svg>